<svg id="a" xmlns="http://www.w3.org/2000/svg" viewBox="0 0 9061.61 1920"><defs><style>.b{fill:#3ebc9e;}.c{fill:#faa63b;}.d{fill:#ef6658;}</style></defs><rect class="c" x="-1.4" y="0" width="9062.4" height="1920"/><rect class="b" x="197.5" y="131.36" width="1781.38" height="1646.35"/><polygon class="d" points="1978.88 1777.71 197.5 1777.71 1978.88 131.36 1978.88 1777.71"/><path class="c" d="M1582.93,955.35c0-67.78-6.27-136-22.23-201.97-16.09-66.51-47.09-126.3-90.64-179.12-45.4-55.07-103.13-101.21-166.95-133.25-63.4-31.83-145.03-38.78-214.92-38.78-71.05,0-154.62,7.17-218.56,40.69-62.3,32.66-118.51,76.99-163.31,131.34-44.47,53.94-75.5,114.89-91.54,182.87-15.29,64.81-21.33,131.73-21.33,198.23,0,82.08,8.61,166.24,34.21,244.56,25.96,79.44,83.15,151.38,146.81,204.15-36.06,43.89-72.24,87.68-108.04,131.78-10.45,13.29-8.12,33.78.57,47.24,10.61,16.43,29.51,26.91,49.04,28.35,65.33,4.75,131.02,11.07,196.5,13.03,58.46,1.75,117.16.72,175.65.72,56.92,0,113.91.38,170.83-.68,67.04-1.25,134.47-8.21,201.33-13.07,19.53-1.44,38.55-11.58,49.04-28.35,8.34-13.33,11.65-34.21.57-47.24-35.8-44.1-71.98-87.89-108.04-131.78,63.67-52.78,120.85-124.71,146.81-204.15,25.6-78.33,34.2-162.49,34.21-244.56ZM806.54,1545.84c24.35-24.43,48.67-48.89,72.67-73.66,63.88,28.29,140.45,35.99,208.97,36,68.53,0,145.09-7.71,208.97-35.99,24,24.78,48.32,49.23,72.67,73.66-51.25,8.79-100.01,15.05-151.98,15.99-43.22.78-86.44,1.16-129.66,1.16-43.22,0-86.45-.38-129.66-1.16-51.98-.94-100.75-7.2-151.98-15.99ZM1088.19,1409.29c-60.46-.09-121.43-11.05-177.37-34.46-53.57-22.41-100.14-60.41-138.95-103.22-77.01-84.97-108.62-203.5-108.63-316.17,0-112.52,31.54-231.36,108.48-316.25,38.82-42.83,85.42-80.83,139-103.28,55.97-23.45,116.98-34.45,177.48-34.54,60.43-.09,121.59,11.12,177.48,34.54,53.62,22.47,100.1,60.48,139,103.28,77.13,84.88,108.48,203.47,108.48,316.25,0,112.92-31.42,231.21-108.63,316.17-38.88,42.79-85.33,80.8-138.95,103.22-55.86,23.36-116.98,34.54-177.37,34.46Z"/><path class="d" d=
<truncated 34449 bytes>
-75.07,77.54,0,124.47,62.29,134.68,140.55h226.5c-4.8-60.6-22.5-113.99-52.14-158.19l-508.14-98.13c-62.13,30.83-106.72,77.85-137.59,136.53-36.73,70.28-55.1,169.3-69.38,351.38-2.04,36.69-4.08,90.9-4.08,113.31v.19c0,25.61,2.05,86.21,6.12,134.06,14.28,172.5,34.69,258.74,75.5,341.8,42.8,88.1,125.02,147.27,233.25,169.29h209.16c100.64-18.99,172.27-65.43,210.56-132.56Z"/><polygon class="b" points="3309.56 1270.15 3309.56 806.97 3550.35 806.97 3550.35 658.43 3309.56 658.43 3309.56 350.05 3099.39 309.46 3099.39 1418.68 3746.24 1418.68 3746.24 1270.15 3309.56 1270.15"/><path class="b" d="M4058.32,494.64l-250.86,924.04h216.3l104.06-349.77h232.62l97.94,349.77h214.26l-225.03-848.86-389.28-75.17ZM4178.83,893.21l65.3-295.48,71.42,295.48h-136.72Z"/><path class="b" d="M5339.85,773.43c11.07-6.43,23.14-14.57,35.52-24.45l-386.18-74.57h-4.39v-.85l-210.17-40.59v785.71h212.21l-2.04-595.74h126.51l181.6,595.74h212.21l-191.81-630.88c8.16-1.6,26.53-14.38,26.53-14.38Z"/><polygon class="b" points="6093.49 887.65 6094.84 893.21 5958.12 893.21 5964.84 862.81 5748.98 821.12 5586.75 1418.68 5803.04 1418.68 5907.11 1068.9 6139.73 1068.9 6237.67 1418.68 6451.93 1418.68 6322.89 931.95 6093.49 887.65"/><polygon class="b" points="6961.43 1055.26 7072.21 1418.68 7284.43 1418.68 7187.19 1098.85 6961.43 1055.26"/><polygon class="b" points="6553.92 976.56 6553.92 1418.68 6766.14 1418.68 6764.76 1017.28 6553.92 976.56"/><polygon class="b" points="7602.75 1179.1 7602.75 1418.68 7821.09 1418.68 7821.09 1221.26 7602.75 1179.1"/><path class="b" d="M8184.64,1291.47c44.79,62.44,114.19,108.27,203.06,127.21h189.71c34.62-7.24,66.69-18.41,95.71-32.88l-488.48-94.33Z"/></svg>