<?xml version="1.0" encoding="UTF-8"?><svg id="a" xmlns="http://www.w3.org/2000/svg" viewBox="0 0 9061.61 1920"><defs><style>.b{fill:#3ebc9e;}.c{fill:#faa63b;}.d{fill:#ef6658;}</style></defs><rect class="b" x="197.5" y="131.36" width="1781.38" height="1646.35"/><polygon class="d" points="1978.88 1777.71 197.5 1777.71 1978.88 131.36 1978.88 1777.71"/><path class="c" d="M1582.93,955.35c0-67.78-6.27-136-22.23-201.97-16.09-66.51-47.09-126.3-90.64-179.12-45.4-55.07-103.13-101.21-166.95-133.25-63.4-31.83-145.03-38.78-214.92-38.78-71.05,0-154.62,7.17-218.56,40.69-62.3,32.66-118.51,76.99-163.31,131.34-44.47,53.94-75.5,114.89-91.54,182.87-15.29,64.81-21.33,131.73-21.33,198.23,0,82.08,8.61,166.24,34.21,244.56,25.96,79.44,83.15,151.38,146.81,204.15-36.06,43.89-72.24,87.68-108.04,131.78-10.45,13.29-8.12,33.78.57,47.24,10.61,16.43,29.51,26.91,49.04,28.35,65.33,4.75,131.02,11.07,196.5,13.03,58.46,1.75,117.16.72,175.65.72,56.92,0,113.91.38,170.83-.68,67.04-1.25,134.47-8.21,201.33-13.07,19.53-1.44,38.55-11.58,49.04-28.35,8.34-13.33,11.65-34.21.57-47.24-35.8-44.1-71.98-87.89-108.04-131.78,63.67-52.78,120.85-124.71,146.81-204.15,25.6-78.33,34.2-162.49,34.21-244.56ZM806.54,1545.84c24.35-24.43,48.67-48.89,72.67-73.66,63.88,28.29,140.45,35.99,208.97,36,68.53,0,145.09-7.71,208.97-35.99,24,24.78,48.32,49.23,72.67,73.66-51.25,8.79-100.01,15.05-151.98,15.99-43.22.78-86.44,1.16-129.66,1.16-43.22,0-86.45-.38-129.66-1.16-51.98-.94-100.75-7.2-151.98-15.99ZM1088.19,1409.29c-60.46-.09-121.43-11.05-177.37-34.46-53.57-22.41-100.14-60.41-138.95-103.22-77.01-84.97-108.62-203.5-108.63-316.17,0-112.52,31.54-231.36,108.48-316.25,38.82-42.83,85.42-80.83,139-103.28,55.97-23.45,116.98-34.45,177.48-34.54,60.43-.09,121.59,11.12,177.48,34.54,53.62,22.47,100.1,60.48,139,103.28,77.13,84.88,108.48,203.47,108.48,316.25,0,112.92-31.42,231.21-108.63,316.17-38.88,42.79-85.33,80.8-138.95,103.22-55.86,23.36-116.98,34.54-177.37,34.46Z"/><path class="d" d="M806.54,1545.84c24.35-24.43,48.67-48.89,72.67-73.66,63.88,28.29,140.45,35.99,208.97,36,68.53,0,145.09-7.71,208.97-35.99,24,24.78,48.32,49.23,72.67,73.66-51.25,8.79-100.01,15.05-151.98,15.99-43.22.78-86.44,1.16-129.66,1.16-43.22,0-86.45-.38-129.66-1.16-51.98-.94-100.75-7.2-151.98-15.99Z"/><path class="b" d="M1088.19,1409.29c-60.46-.09-121.43-11.05-177.37-34.46-53.57-22.41-100.14-60.41-138.95-103.22-77.01-84.97-108.62-203.5-108.63-316.17,0-112.52,31.54-231.36,108.48-316.25,38.82-42.83,85.42-80.83,139-103.28,55.97-23.45,116.98-34.45,177.48-34.54,60.43-.09,121.59,11.12,177.48,34.54,53.62,22.47,100.1,60.48,139,103.28,77.13,84.88,108.48,203.47,108.48,316.25,0,112.92-31.42,231.21-108.63,316.17-38.88,42.79-85.33,80.8-138.95,103.22-55.86,23.36-116.98,34.54-177.37,34.46Z"/><path class="d" d="M854.85,606.14c32.24-25.16,72.41-43.22,113.7-45.38,20.79-1.09,51.45,1.27,63.51,21.51,13.73,23.03-9.96,48.44-26,62.57-45.59,40.16-104.02,64.59-159.15,87.89-39.71,16.78-76.12,45.17-109.4,72.13-31.51,25.53-66.42,70.45-69.03,112.59-4.69,75.71,136.16,36.1,170.61,28.55,28.84-6.32,158.62-29,142.04,38.14-13.73,55.59-96.03,84.07-144.55,91.62-51.05,7.94-103.24,22.92-144.9,55.21,20.07,58.02,51.11,106.33,93.37,150.59,6.72-2.61,13.71-5.8,20.95-9.58,39.89-20.83,103.67-24.78,145.87-8.52,69.75,26.87-34.63,86.85-59.39,100.27,62.84,29.62,130.84,44.16,199.41,44.08,43.66-.05,87.17-6.26,129.77-17.91,11.05-28.44,40.46-54.51,66.75-68.59,60.03-32.15,120.13-72.4,166.84-122.45,16.44-30.71,28.99-63.9,38.48-97.38-14.49-18.22-45.41-17.61-66.26-17.23-23.03.42-46.62,2.65-69.14,7.51-48.14,10.39-103.35,19.16-151.75,4.68-22.29-6.67-45.4-22.04-39.78-48.4,5.97-27.99,35.5-48.71,58.41-62.19,40.56-23.86,87.94-37.89,134.25-43.59,60.08-7.39,117.6-69,137.02-123.8-7.81-29.14-17.59-57.53-29.73-85.15-42.5-15.47-94.66-1.55-136.65,8.06-37.65,8.62-170.03,38.67-135.35-43.52,22.48-53.29,73.89-100.23,118.06-135.99-64.78-42.18-145.19-61.94-220.91-62.08-151.3-.29-323.42,78.76-379.51,231.11,44.23-45.53,92.48-85.75,142.45-124.75Z"/><path class="c" d="M1453.48,858.73c6.34-4.08,10.34-13.73,9.88-21.04-1.67-26.7-16.41-55.47-27.42-79.35-12.24-26.56-27.85-63.61-53.48-79.62-2.52-1.58-5.02-2.53-7.31-2.77-4.06-.44-8.15.23-11.79,2.12-23.11,12.02-46.12,24.24-69.08,36.55-6.82-6.18-14.05-12.18-21.44-17.58-24.04-17.61-49.97-31.6-77.92-42.44-.67-26.58-1.43-53.16-2.29-79.73-.09-2.76-.78-5.46-1.82-7.96-2.94-7.09-11.57-13.66-19.05-14.97-27.29-4.78-55.57-8.54-83.36-8.54-24.21,0-48.68,2.37-72.72,6.5-3.54.61-7.16,1.39-10.63,2.03-10.9,2.01-20,11.85-20.87,22.92-.86,26.57-1.61,53.15-2.28,79.73-36.8,14.25-69.62,34.12-99.38,60.02-15.13-8.11-30.26-16.22-45.45-24.21-7.87-4.15-15.76-8.27-23.65-12.36-3.64-1.89-7.94-2.71-11.8-2.12-24.52,3.75-44.17,49.36-54.37,69.41-13.96,27.43-30.35,59.31-33.75,90-.09.84-.12,1.66-.14,2.35-.25,7.16,3.54,16.96,9.89,21.05,20.35,13.43,40.76,26.77,61.22,40.04-2.48,16.39-4.2,32.8-4.71,49.25-.08,2.48-.11,5.03-.09,7.52.17,18.97,1.98,37.85,4.81,56.77-13.21,8.56-26.41,17.14-39.58,25.75-7.22,4.72-14.43,9.46-21.63,14.21-6.35,4.08-10.42,13.81-9.88,21.03,1.54,20.58,11.49,41.77,19.29,60.78,9.41,22.92,20.46,45.84,34.09,66.74,8.02,12.29,19.77,31.88,34.92,34.23,3.86.6,8.16-.23,11.8-2.11,23.12-12,46.13-24.2,69.1-36.5,7.65,6.65,15.41,13.15,23.44,19.06,23.05,16.97,48.73,30.54,75.92,40.87.67,26.54,1.43,53.08,2.3,79.62.21,6.38,3.33,12.39,8.31,16.73,3.42,2.98,7.73,5.2,12.56,6.15,27.44,5.42,55.53,8.51,83.3,8.51,13.06,0,26.52-.66,39.53-1.94,14.56-1.43,29.61-3.56,43.78-6.59,10.24-2.19,20.82-11.32,20.86-22.88.87-26.54,1.63-53.08,2.3-79.62,36.82-14,69.65-34.1,99.34-59.94,17.09,9.15,34.21,18.26,51.38,27.28,7.15,3.74,10.69,5.58,17.69,9.21,3.64,1.88,7.92,2.7,11.8,2.11,25.25-3.82,45.57-51.8,55.86-72.36,13.19-26.36,31.51-59.76,32.39-89.37.05-1.71-.12-3.46-.39-5.14-1.1-6.68-4.45-12.56-9.49-15.89-20.34-13.4-40.73-26.71-61.17-39.95,2.83-18.93,4.64-37.8,4.81-56.76.03-3.72-.04-7.53-.2-11.21-.66-15.2-2.34-30.37-4.6-45.55,3.9-2.53,5.84-3.78,9.68-6.28,17.2-11.19,34.37-22.44,51.5-33.75ZM1306.89,1037.79c-5.99,16.31-14.12,32.1-23.5,47.04-28.87,46-76.21,81.58-127.99,96.8-21.85,6.42-44.4,9.9-66.96,9.89-34.98,0-71.18-7.79-102.87-24.17-21.09-10.9-40.44-24.24-57.36-40.44-23.03-22.07-41.66-49.12-54.07-78.5-12.33-29.2-18.36-61.14-18.4-92.86-.05-40.86,10.09-81.77,30.91-118.18,41.09-71.84,119.78-118.77,201.78-117.83,41.19.47,81.12,10.89,116.35,31.47,35.9,20.97,65.45,51.52,86.28,87.9,7.31,12.78,13.45,26.83,18.13,40.91,8.11,24.38,11.9,50.52,11.88,75.72-.03,27.84-4.59,56.13-14.18,82.24Z"/><path class="c" d="M1131.19,770.79c-15.83,27.04-31.61,54.11-47.35,81.21,54.36,0,108.72.42,163.07,1.3-25.89-41.32-68.43-71.18-115.72-82.5Z"/><path class="c" d="M1256.11,1041.62c13.12-27.55,20.62-56.37,20.66-86.06.02-18.17-2.56-37.08-8.09-54.97-31-.31-62-.54-93-.69,27.06,47.1,53.88,94.33,80.43,141.72Z"/><path class="c" d="M1023.98,955.58c10.72,18.63,21.45,37.25,32.21,55.86,21.5.03,43,.03,64.5,0,10.75-18.61,21.49-37.23,32.2-55.86-10.72-18.63-21.45-37.25-32.2-55.86-21.5-.03-43.01-.03-64.51,0-10.75,18.61-21.49,37.23-32.2,55.86Z"/><path class="c" d="M1079.03,766.15c-49.32,3.72-94.92,23.92-128.64,60.62,15.36,27.06,30.77,54.09,46.22,81.09,27.23-47.38,54.7-94.62,82.43-141.72Z"/><path class="c" d="M1097.83,1144.95c49.31-3.73,94.9-23.92,128.61-60.62-15.35-27.04-30.75-54.06-46.19-81.05-27.22,47.37-54.69,94.59-82.42,141.67Z"/><path class="c" d="M1045.69,1140.32c15.83-27.03,31.61-54.09,47.35-81.17-54.36,0-108.71-.42-163.07-1.32,26.25,40.84,68.14,71.69,115.72,82.48Z"/><path class="c" d="M920.72,869.49c-13.1,27.52-20.62,56.36-20.65,86.07-.02,18.24,2.69,36.98,8.1,54.97,31,.32,62.01.56,93.01.72-27.07-47.11-53.9-94.36-80.46-141.76Z"/><path class="c" d="M593.44,953.71c0,66.5,6.03,133.42,21.32,198.23,16.04,67.98,47.07,128.93,91.54,182.87,44.81,54.34,101.01,98.67,163.31,131.34,63.94,33.52,147.52,40.69,218.57,40.69,69.89,0,151.52-6.95,214.92-38.78,63.82-32.04,121.55-78.18,166.95-133.25,43.55-52.82,74.55-112.61,90.64-179.12,15.96-65.97,22.23-134.19,22.23-201.97,0-82.08-8.61-166.24-34.21-244.56-25.96-79.44-83.14-151.37-146.81-204.15,36.06-43.89,72.24-87.68,108.04-131.78,11.07-13.04,7.76-33.92-.57-47.24-10.49-16.77-29.51-26.91-49.04-28.35-66.86-4.87-134.29-11.83-201.33-13.07-56.92-1.06-113.9-.68-170.83-.68-58.49,0-117.19-1.03-175.65.72-65.48,1.96-131.17,8.28-196.5,13.03-19.53,1.44-38.44,11.92-49.04,28.35-8.69,13.47-11.02,33.96-.57,47.24,35.8,44.1,71.98,87.89,108.04,131.78-63.66,52.77-120.85,124.71-146.81,204.15-25.6,78.33-34.2,162.48-34.21,244.56ZM1369.83,363.23c-24.35,24.43-48.67,48.89-72.67,73.66-63.88-28.29-140.44-35.99-208.97-35.99-68.52,0-145.09,7.71-208.97,35.99-24-24.78-48.32-49.23-72.67-73.66,51.23-8.79,100.01-15.05,151.98-15.99,43.22-.78,86.44-1.16,129.66-1.16,43.22,0,86.45.38,129.66,1.16,51.97.94,100.73,7.2,151.98,15.99ZM1088.19,499.77c60.39-.09,121.51,11.09,177.37,34.46,53.62,22.42,100.06,60.43,138.95,103.22,77.21,84.96,108.62,203.26,108.63,316.17,0,112.77-31.35,231.37-108.48,316.25-38.9,42.81-85.37,80.81-139,103.28-55.88,23.42-117.04,34.62-177.48,34.54-60.5-.09-121.51-11.08-177.48-34.54-53.58-22.45-100.18-60.45-139-103.28-76.94-84.89-108.48-203.72-108.48-316.25,0-112.67,31.62-231.2,108.63-316.17,38.8-42.81,85.38-80.82,138.95-103.22,55.95-23.4,116.91-34.37,177.37-34.46Z"/><path class="d" d="M1369.83,363.23c-24.35,24.43-48.67,48.89-72.67,73.66-63.88-28.29-140.44-35.99-208.97-35.99-68.52,0-145.09,7.71-208.97,35.99-24-24.78-48.32-49.23-72.67-73.66,51.23-8.79,100.01-15.05,151.98-15.99,43.22-.78,86.44-1.16,129.66-1.16,43.22,0,86.45.38,129.66,1.16,51.97.94,100.73,7.2,151.98,15.99Z"/><path class="d" d="M3073.63,1742.81l-23.99.87c3.02,2.24,6.45,3.54,10.16,3.54,5.39,0,10.13-1.37,13.83-4.41Z"/><polygon class="d" points="6499.21 1631.58 6499.21 1618.7 6455.26 1620.29 6455.26 1631.58 6499.21 1631.58"/><path class="b" d="M2240.38,1777.71c10.62,0,19.87-1.76,27.74-5.72l-49.14,1.78c6.45,2.57,13.62,3.94,21.39,3.94Z"/><path class="d" d="M2177.11,1653.32c0,.35,0,.74,0,1.15v-2.18c0,.37,0,.72,0,1.03Z"/><path class="d" d="M2239.75,1531.95c-5.87,0-11.21.62-16.07,1.81h31.31c-4.75-1.17-9.83-1.81-15.24-1.81Z"/><path class="d" d="M2298.35,1718.53h-33.97c-4.05,22.04-10.6,28.68-24,28.68-9.66,0-17.45-8.76-20.88-20.23-6.23-20.83-8.1-38.64-9.35-61.59-.31-4.83-.31-11.47-.31-13.89,0-2.72.31-4.83.62-12.68.93-20.23,3.12-48.61,9.04-63.1,3.74-9.66,10.29-14.19,20.26-14.19,11.84,0,19.64,10.57,21.82,23.55h34.6c-1.31-24.54-16.63-45.26-41.18-51.33h-31.31c-17.35,4.24-28.54,15.67-35.36,31.7-5.61,13.28-8.42,32-10.6,66.42-.29,6.44-.58,15.72-.62,20.41v2.18c.04,5.33.35,15.8.93,24.21,2.18,32.61,5.3,48.91,11.53,64.61,5.69,14.5,15.95,25.12,29.41,30.48l49.14-1.78c15.7-7.88,25.87-24.5,30.23-53.46Z"/><polygon class="b" points="2317.05 1775.29 2349.47 1775.29 2349.45 1769.05 2317.05 1770.22 2317.05 1775.29"/><polygon class="b" points="2396.22 1775.29 2428.63 1775.29 2426.42 1766.26 2394.28 1767.42 2396.22 1775.29"/><path class="d" d="M2403.39,1653.32c9.66-6.94,24.31-24.45,24.31-53.44,0-42.27-20.57-66.12-58.28-66.12h-52.36v236.45l32.4-1.17-.29-106.36h19.32l25.8,104.74,32.13-1.16-27.08-110.22c1.25-.3,4.05-2.72,4.05-2.72ZM2366.3,1634.6h-17.14v-72.76h17.14c18.08,0,26.8,12.38,26.8,36.53,0,22.64-9.04,36.23-26.8,36.23Z"/><polygon class="b" points="2450.45 1775.29 2549.26 1775.29 2549.26 1761.81 2450.45 1765.39 2450.45 1775.29"/><polygon class="d" points="2482.56 1747.22 2482.56 1659.66 2519.33 1659.66 2519.33 1631.58 2482.56 1631.58 2482.56 1561.84 2546.14 1561.84 2546.14 1533.77 2450.45 1533.77 2450.45 1765.39 2549.26 1761.81 2549.26 1747.22 2482.56 1747.22"/><polygon class="b" points="2658.04 1775.29 2690.76 1775.29 2686.81 1756.82 2654.12 1758.01 2658.04 1775.29"/><polygon class="b" points="2558.61 1775.29 2591.65 1775.29 2595.29 1760.14 2561.67 1761.36 2558.61 1775.29"/><path class="d" d="M2611.59,1533.77l-49.93,227.59,33.62-1.22,12.25-50.96h35.53l11.05,48.83,32.68-1.18-47.78-223.06h-27.43ZM2615.33,1675.96l9.97-55.85,10.91,55.85h-20.88Z"/><polygon class="b" points="2720.68 1775.29 2754.03 1775.29 2754.03 1754.39 2720.68 1755.6 2720.68 1775.29"/><polygon class="d" points="2788.32 1561.84 2788.32 1533.77 2682.97 1533.77 2682.97 1561.84 2720.68 1561.84 2720.68 1755.6 2754.03 1754.39 2754.03 1561.84 2788.32 1561.84"/><polygon class="b" points="2806.09 1775.29 2839.44 1775.29 2839.44 1751.29 2806.09 1752.5 2806.09 1775.29"/><polygon class="d" points="2806.09 1533.77 2806.09 1752.5 2839.44 1751.29 2839.44 1533.77 2806.09 1533.77"/><polygon class="b" points="2864.99 1775.29 2897.1 1775.29 2897.1 1749.2 2864.99 1750.37 2864.99 1775.29"/><polygon class="b" points="2942.6 1775.29 2974.71 1775.29 2974.71 1746.39 2933.88 1747.87 2942.6 1775.29"/><polygon class="d" points="2942.6 1534.37 2942.6 1670.53 2897.1 1534.37 2864.99 1534.37 2864.99 1750.37 2897.1 1749.2 2897.1 1632.19 2933.88 1747.87 2974.71 1746.39 2974.71 1534.37 2942.6 1534.37"/><path class="d" d="M3059.17,1531.95c-5.87,0-11.21.62-16.07,1.81h31.6c-4.78-1.18-9.96-1.81-15.52-1.81Z"/><path class="b" d="M3059.8,1747.22c-3.71,0-7.14-1.3-10.16-3.54l-39.89,1.45c8.73,20.31,26.74,31.98,50.05,31.98s41.14-9.96,48.93-26.87c.95-2.08,1.95-5.21,2.82-8.8l-37.92,1.37c-3.7,3.04-8.44,4.41-13.83,4.41Z"/><path class="d" d="M3114.03,1670.23v-8.15h-52.36v28.08h20.88l-.31,26.57c0,9.66-1.87,16.3-3.43,19.32-1.35,2.83-3.1,5.06-5.18,6.76l37.92-1.37c1.41-5.8,2.48-12.77,2.48-18.37v-52.83Z"/><path class="d" d="M3038.91,1726.99c-6.23-20.83-8.1-38.64-9.35-61.59-.31-4.83-.31-11.47-.31-13.89,0-2.72.31-4.83.62-12.68.93-20.23,3.12-48.61,9.04-63.1,3.74-9.66,10.29-14.19,20.26-14.19,11.84,0,19.01,11.77,20.57,26.57h34.6c-1.82-28.42-15.76-48.45-39.64-54.35h-31.6c-17.35,4.24-28.54,15.67-35.36,31.7-5.61,13.28-8.42,32-10.6,66.42-.31,6.94-.62,17.21-.62,21.44,0,4.83.31,16.3.94,25.36,2.18,32.61,5.3,48.91,11.53,64.61.24.62.5,1.23.76,1.83l39.89-1.45c-4.84-3.59-8.61-9.62-10.73-16.69Z"/><polygon class="b" points="3200.98 1775.29 3234.02 1775.29 3243.31 1736.66 3209.19 1737.9 3200.98 1775.29"/><polygon class="b" points="3300.41 1775.29 3333.14 1775.29 3324.24 1733.73 3291.28 1734.92 3300.41 1775.29"/><path class="d" d="M3253.97,1533.77l-44.78,204.13,34.12-1.24,6.61-27.48h35.53l5.83,25.75,32.96-1.19-42.84-199.96h-27.43ZM3257.71,1675.96l9.97-55.85,10.91,55.85h-20.88Z"/><path class="b" d="M3471.21,1746.31c-9.27,0-16.54-6.85-19.47-17.2l-33.53,1.21c4.96,27.05,24.31,46.78,53.01,46.78,30.21,0,52.02-22.03,54.85-50.69l-34.3,1.24c-2.14,12.06-9.58,18.65-20.54,18.65Z"/><path class="d" d="M3473.08,1531.95c-6.24,0-11.88.64-16.95,1.81h32.13c-4.6-1.17-9.65-1.81-15.18-1.81Z"/><path class="d" d="M3498.95,1654.23l-28.68-31.1c-15.27-16-19.64-26.27-19.64-38.95s8.73-22.04,21.51-22.04c15.9,0,21.51,11.77,22.13,22.95h31.48c-1.31-23.16-12.82-45.03-37.49-51.33h-32.13c-26.32,6.07-37.28,26.64-37.28,48.91,0,20.83,6.55,38.64,24.62,58.57l25.87,28.68c18.39,20.53,23.06,32,23.06,50.12,0,2.75-.24,5.27-.65,7.61l34.3-1.24c.21-2.09.32-4.22.32-6.37,0-28.68-10.91-47.7-27.43-65.82Z"/><path class="d" d="M3450.33,1718.53h-33.35c.12,4.05.53,7.99,1.23,11.79l33.53-1.21c-.91-3.22-1.41-6.78-1.41-10.57Z"/><path class="b" d="M3601.49,1746.61c-11.92,0-20.3-6.39-22.29-22.12l-31.86,1.15c4.08,36.17,25.83,52.06,54.16,52.06s49.93-17.03,52.67-55.93l-32.04,1.16c-1.38,16.65-8.63,23.68-20.64,23.68Z"/><path class="d" d="M3654.48,1533.77h-32.1v182.96c0,2.21-.09,4.27-.25,6.21l32.04-1.16c.2-2.88.32-5.86.32-8.98v-179.03Z"/><path class="d" d="M3578.74,1716.72v-182.96h-32.1v179.03c0,4.54.25,8.81.7,12.85l31.86-1.15c-.3-2.37-.46-4.96-.46-7.77Z"/><path class="d" d="M3730.84,1531.95c-6.24,0-11.88.64-16.95,1.81h32.13c-4.6-1.17-9.65-1.81-15.18-1.81Z"/><path class="b" d="M3750.17,1720.04c0,16.91-8.1,26.27-21.19,26.27-11.83,0-20.41-11.15-20.86-26.49l-33.25,1.2c1.88,31.7,22.22,56.08,54.12,56.08s55.17-25.36,55.17-57.06c0-1.01-.02-2-.04-2.98l-33.95,1.23c.01.58.02,1.16.02,1.75Z"/><path class="d" d="M3708.09,1718.53h-33.35c.02.84.07,1.66.12,2.49l33.25-1.2c-.01-.43-.02-.85-.02-1.29Z"/><path class="d" d="M3728.04,1623.13c-15.27-16-19.64-26.27-19.64-38.95s8.73-22.04,21.51-22.04c15.9,0,21.51,11.77,22.13,22.95h31.48c-1.31-23.16-12.82-45.03-37.49-51.33h-32.13c-26.32,6.07-37.28,26.64-37.28,48.91,0,20.83,6.55,38.64,24.62,58.57l25.87,28.68c17.79,19.86,22.75,31.25,23.05,48.37l33.95-1.23c-.73-27.03-11.44-45.36-27.39-62.84l-28.67-31.1Z"/><polygon class="b" points="3832.76 1775.29 3866.11 1775.29 3866.11 1714.1 3832.76 1715.3 3832.76 1775.29"/><polygon class="d" points="3900.4 1561.84 3900.4 1533.77 3795.05 1533.77 3795.05 1561.84 3832.76 1561.84 3832.76 1715.3 3866.11 1714.1 3866.11 1561.84 3900.4 1561.84"/><polygon class="b" points="3892.61 1775.29 3925.65 1775.29 3941.01 1711.38 3906.36 1712.64 3892.61 1775.29"/><polygon class="b" points="3992.04 1775.29 4024.76 1775.29 4010.53 1708.86 3977.28 1710.07 3992.04 1775.29"/><path class="d" d="M3945.6,1533.77l-39.24,178.87,34.66-1.26.53-2.21h35.53l.2.89,33.25-1.2-37.51-175.1h-27.43ZM3949.34,1675.96l9.97-55.85,10.91,55.85h-20.88Z"/><polygon class="b" points="4040.97 1775.29 4074.32 1775.29 4074.32 1706.55 4040.97 1707.76 4040.97 1775.29"/><polygon class="d" points="4040.97 1533.77 4040.97 1707.76 4074.32 1706.55 4074.32 1533.77 4040.97 1533.77"/><polygon class="b" points="4177.49 1775.29 4209.59 1775.29 4209.59 1701.65 4154.7 1703.64 4177.49 1775.29"/><polygon class="b" points="4099.88 1775.29 4131.98 1775.29 4131.98 1704.46 4099.88 1705.63 4099.88 1775.29"/><polygon class="d" points="4177.49 1534.37 4177.49 1670.53 4131.98 1534.37 4099.88 1534.37 4099.88 1705.63 4131.98 1704.46 4131.98 1632.19 4154.7 1703.64 4209.59 1701.65 4209.59 1534.37 4177.49 1534.37"/><polygon class="b" points="4225.17 1775.29 4258.21 1775.29 4274.11 1709.18 4309.64 1709.18 4324.6 1775.29 4357.33 1775.29 4340.53 1696.91 4241.58 1700.49 4225.17 1775.29"/><path class="d" d="M4278.16,1533.77l-36.58,166.73,98.95-3.59-34.95-163.14h-27.43ZM4281.9,1675.96l9.97-55.85,10.91,55.85h-20.88Z"/><path class="b" d="M4448.96,1703.44c0,27.47-6.23,43.78-22.13,43.78h-21.82v-52.64l-32.1,1.16v79.56h51.43c18.39,0,32.73-3.32,41.45-11.77,8.42-8.15,17.45-29.29,17.14-53.74,0-6.55-.23-12.53-.68-18.01l-33.65,1.22c.24,3.28.36,6.76.36,10.45Z"/><path class="d" d="M4461.11,1644.87c14.96-8.45,18.08-26.27,18.08-52.53,0-38.95-17.45-58.57-49.56-58.57h-56.73v161.97l32.1-1.16v-34.91h21.82c13.74,0,20.26,12.41,21.77,33.33l33.65-1.22c-2.13-26.08-9.29-40.42-21.14-46.9ZM4428.39,1631.58h-23.38v-69.74h23.38c15.27,0,18.7,18.72,18.7,35.02s-4.05,34.72-18.7,34.72Z"/><polygon class="b" points="4504.75 1775.29 4605.42 1775.29 4605.42 1747.52 4536.85 1747.52 4536.85 1689.79 4504.75 1690.96 4504.75 1775.29"/><polygon class="d" points="4504.75 1533.77 4504.75 1690.96 4536.85 1689.79 4536.85 1533.77 4504.75 1533.77"/><polygon class="b" points="4622.56 1775.29 4721.37 1775.29 4721.37 1747.22 4654.67 1747.22 4654.67 1685.53 4622.56 1686.69 4622.56 1775.29"/><polygon class="d" points="4691.45 1659.66 4691.45 1631.58 4654.67 1631.58 4654.67 1561.84 4718.25 1561.84 4718.25 1533.77 4622.56 1533.77 4622.56 1686.69 4654.67 1685.53 4654.67 1659.66 4691.45 1659.66"/><polygon class="b" points="4813 1775.29 4845.11 1775.29 4845.11 1678.63 4813 1679.79 4813 1775.29"/><polygon class="d" points="4881.88 1659.66 4881.88 1631.58 4845.11 1631.58 4845.11 1561.84 4908.69 1561.84 4908.69 1533.77 4813 1533.77 4813 1679.79 4845.11 1678.63 4845.11 1659.66 4881.88 1659.66"/><path class="b" d="M5001.57,1716.72c0,21.13-7.48,29.89-20.88,29.89s-22.75-8.45-22.75-29.89v-42.19l-32.1,1.16v37.1c0,45.29,23.38,64.91,54.86,64.91s52.99-19.62,52.99-64.91v-41l-32.1,1.16v43.77Z"/><polygon class="d" points="4957.94 1533.77 4925.83 1533.77 4925.83 1675.7 4957.94 1674.54 4957.94 1533.77"/><polygon class="d" points="5001.57 1533.77 5001.57 1672.96 5033.68 1671.79 5033.68 1533.77 5001.57 1533.77"/><polygon class="b" points="5088.53 1775.29 5121.88 1775.29 5121.88 1668.6 5088.53 1669.81 5088.53 1775.29"/><polygon class="d" points="5156.17 1561.84 5156.17 1533.77 5050.82 1533.77 5050.82 1561.84 5088.53 1561.84 5088.53 1669.81 5121.88 1668.6 5121.88 1561.84 5156.17 1561.84"/><path class="b" d="M5249.05,1716.72c0,21.13-7.48,29.89-20.88,29.89s-22.75-8.45-22.75-29.89v-51.15l-32.1,1.16v46.06c0,45.29,23.38,64.91,54.86,64.91s52.99-19.62,52.99-64.91v-49.97l-32.1,1.16v52.73Z"/><polygon class="d" points="5205.41 1533.77 5173.31 1533.77 5173.31 1666.73 5205.41 1665.57 5205.41 1533.77"/><polygon class="d" points="5249.05 1533.77 5249.05 1663.99 5281.15 1662.83 5281.15 1533.77 5249.05 1533.77"/><polygon class="b" points="5306.09 1775.29 5338.5 1775.29 5338.19 1662.68 5357.52 1662.68 5385.26 1775.29 5417.67 1775.29 5389.08 1658.92 5306.09 1661.92 5306.09 1775.29"/><path class="d" d="M5392.43,1653.32c9.66-6.94,24.31-24.45,24.31-53.44,0-42.27-20.57-66.12-58.28-66.12h-52.36v128.16l82.99-3.01-.71-2.88c1.25-.3,4.05-2.72,4.05-2.72ZM5355.33,1634.6h-17.14v-72.76h17.14c18.08,0,26.8,12.38,26.8,36.53,0,22.64-9.04,36.23-26.8,36.23Z"/><polygon class="b" points="5439.49 1775.29 5538.29 1775.29 5538.29 1747.22 5471.59 1747.22 5471.59 1659.66 5508.37 1659.66 5508.37 1654.59 5439.49 1657.09 5439.49 1775.29"/><polygon class="d" points="5471.59 1631.58 5471.59 1561.84 5535.18 1561.84 5535.18 1533.77 5439.49 1533.77 5439.49 1657.09 5508.37 1654.59 5508.37 1631.58 5471.59 1631.58"/><polygon class="b" points="5659.85 1775.29 5693.2 1775.29 5693.2 1647.9 5659.85 1649.11 5659.85 1775.29"/><polygon class="d" points="5727.49 1561.84 5727.49 1533.77 5622.14 1533.77 5622.14 1561.84 5659.85 1561.84 5659.85 1649.11 5693.2 1647.9 5693.2 1561.84 5727.49 1561.84"/><polygon class="b" points="5744.63 1775.29 5776.73 1775.29 5776.73 1659.66 5820.68 1659.66 5820.68 1775.29 5852.78 1775.29 5852.78 1642.12 5744.63 1646.03 5744.63 1775.29"/><polygon class="d" points="5820.68 1533.77 5820.68 1631.58 5776.73 1631.58 5776.73 1533.77 5744.63 1533.77 5744.63 1646.03 5852.78 1642.12 5852.78 1533.77 5820.68 1533.77"/><path class="b" d="M5877.72,1775.29h32.42l-.31-112.61h19.32l27.74,112.61h32.42l-29.3-119.25c1.25-.3,4.05-2.72,4.05-2.72,4.32-3.11,9.64-8.33,14.2-15.75l-100.54,3.64v134.08Z"/><path class="d" d="M5930.08,1533.77h-52.36v107.45l100.54-3.64c5.63-9.16,10.11-21.67,10.11-37.69,0-42.27-20.57-66.12-58.28-66.12ZM5926.96,1634.6h-17.14v-72.76h17.14c18.08,0,26.8,12.38,26.8,36.53,0,22.64-9.04,36.23-26.8,36.23Z"/><path class="d" d="M6069.4,1531.95c-5.18,0-10.01.62-14.49,1.81h28.98c-4.48-1.19-9.31-1.81-14.49-1.81Z"/><path class="b" d="M6097.76,1644.26c.31,4.83.31,11.47.31,13.89,0,2.72-.31,4.83-.62,12.68-.94,20.23-4.05,45.89-9.97,60.38-3.74,9.66-8.1,16.3-18.08,16.3s-14.34-6.64-18.08-16.3c-5.92-14.49-9.04-40.15-9.97-60.38-.31-7.85-.62-9.96-.62-12.68,0-2.42,0-9.06.31-13.89.17-3.1.33-6.08.5-8.99l-32.93,1.19c-.4,7.78-.61,15.98-.61,19.87,0,4.23.31,14.49.62,21.44,2.18,34.42,4.99,51.32,10.6,64.61,8.73,20.53,23.38,35.02,50.18,35.02s41.45-14.49,50.18-35.02c5.61-13.59,8.42-30.19,10.6-64.61.31-7.25.62-17.21.62-21.74s-.29-15.1-.86-23.96l-32.8,1.19c.22,3.53.42,7.18.63,11Z"/><path class="d" d="M6118.34,1566.67c-6.6-16.81-18.18-28.6-34.45-32.91h-28.98c-16.26,4.31-27.85,16.1-34.45,32.91-6.23,15.7-9.35,31.7-11.53,64.31-.12,1.76-.23,3.61-.33,5.49l32.93-1.19c1.09-18.59,2.52-33.68,7.91-51.7,3.43-11.47,10.29-21.13,19.95-21.13s16.52,9.66,19.95,21.13c5.2,17.36,6.71,32.01,7.79,49.68l32.8-1.19c-.02-.37-.05-.73-.07-1.09-1.87-32.61-5.3-48.61-11.53-64.31Z"/><path class="b" d="M6228.36,1716.72c0,21.13-7.48,29.89-20.88,29.89s-22.75-8.45-22.75-29.89v-86.63l-32.1,1.16v81.55c0,45.29,23.38,64.91,54.86,64.91s52.99-19.62,52.99-64.91v-85.45l-32.1,1.16v88.21Z"/><polygon class="d" points="6228.36 1533.77 6228.36 1628.51 6260.46 1627.35 6260.46 1533.77 6228.36 1533.77"/><polygon class="d" points="6184.72 1533.77 6152.62 1533.77 6152.62 1631.25 6184.72 1630.09 6184.72 1533.77"/><path class="b" d="M6282.9,1631.89c-.31,6.94-.62,17.21-.62,21.44,0,4.83.31,16.3.93,25.36,2.18,32.61,5.3,48.91,11.53,64.61,8.42,21.44,26.8,33.81,50.8,33.81s41.14-9.96,48.93-26.87c2.49-5.43,5.3-18.11,5.3-27.17v-60.98h-52.36v28.08h20.88l-.31,26.57c0,9.66-1.87,16.3-3.43,19.32-3.74,7.85-10.6,11.17-19.01,11.17-9.66,0-17.45-8.76-20.88-20.23-6.23-20.83-8.1-38.64-9.35-61.59-.31-4.83-.31-11.47-.31-13.89,0-2.72.31-4.83.62-12.68.19-4.22.44-8.79.77-13.51l-33.14,1.2c-.12,1.75-.24,3.53-.36,5.37Z"/><path class="d" d="M6344.93,1531.95c-5.87,0-11.21.62-16.07,1.81h31.6c-4.78-1.18-9.96-1.81-15.52-1.81Z"/><path class="d" d="M6344.93,1561.54c11.84,0,19.01,11.77,20.57,26.57h34.6c-1.82-28.42-15.76-48.45-39.64-54.35h-31.6c-17.35,4.24-28.54,15.67-35.36,31.7-5.31,12.58-8.11,30.03-10.24,61.05l33.14-1.2c1.24-17.94,3.58-38.12,8.27-49.59,3.74-9.66,10.28-14.19,20.26-14.19Z"/><polygon class="b" points="6499.21 1631.58 6455.26 1631.58 6455.26 1620.29 6423.16 1621.45 6423.16 1775.29 6455.26 1775.29 6455.26 1659.66 6499.21 1659.66 6499.21 1775.29 6531.31 1775.29 6531.31 1617.53 6499.21 1618.7 6499.21 1631.58"/><polygon class="d" points="6499.21 1533.77 6499.21 1618.7 6531.31 1617.53 6531.31 1533.77 6499.21 1533.77"/><polygon class="d" points="6455.26 1533.77 6423.16 1533.77 6423.16 1621.45 6455.26 1620.29 6455.26 1533.77"/><path class="b" d="M6619.83,1775.29h33.04l15.9-66.12h35.53l14.96,66.12h32.73l-35.23-164.48-61.32,2.22-35.6,162.26ZM6686.53,1620.11l10.91,55.85h-20.88l9.97-55.85Z"/><polygon class="d" points="6672.81 1533.77 6655.42 1613.04 6716.75 1610.81 6700.24 1533.77 6672.81 1533.77"/><path class="b" d="M6816.81,1634.6h-17.14v-26.79l-32.1,1.16v166.32h32.42l-.31-112.61h19.32l27.74,112.61h32.42l-29.3-119.25c1.25-.3,4.05-2.72,4.05-2.72,9.08-6.53,22.57-22.4,24.15-48.35l-34.84,1.26c-1.93,17.89-10.8,28.37-26.4,28.37Z"/><path class="d" d="M6819.93,1533.77h-52.36v75.21l32.1-1.16v-45.97h17.14c18.08,0,26.81,12.38,26.81,36.53,0,2.76-.14,5.38-.4,7.86l34.84-1.26c.1-1.65.16-3.35.16-5.09,0-42.27-20.57-66.12-58.28-66.12Z"/><polygon class="b" points="6927.77 1775.29 6961.12 1775.29 6961.12 1601.96 6927.77 1603.17 6927.77 1775.29"/><polygon class="d" points="6995.41 1561.84 6995.41 1533.77 6890.06 1533.77 6890.06 1561.84 6927.77 1561.84 6927.77 1603.17 6961.12 1601.96 6961.12 1561.84 6995.41 1561.84"/><path class="b" d="M7076.13,1775.29h33.04l15.9-66.12h35.53l14.96,66.12h32.73l-38.75-180.88-54.15,1.96-39.25,178.92ZM7142.83,1620.11l10.91,55.85h-20.88l9.97-55.85Z"/><polygon class="d" points="7129.12 1533.77 7115.39 1596.37 7169.54 1594.41 7156.55 1533.77 7129.12 1533.77"/><polygon class="b" points="7301.48 1670.53 7274.76 1590.6 7223.87 1592.44 7223.87 1775.29 7255.97 1775.29 7255.97 1632.19 7301.48 1775.29 7333.58 1775.29 7333.58 1588.47 7301.48 1589.63 7301.48 1670.53"/><polygon class="d" points="7255.97 1534.37 7223.87 1534.37 7223.87 1592.44 7274.76 1590.6 7255.97 1534.37"/><polygon class="d" points="7301.48 1534.37 7301.48 1589.63 7333.58 1588.47 7333.58 1534.37 7301.48 1534.37"/><path class="b" d="M7436.12,1633.09c.31,5.13.62,16.91.62,20.53,0,5.13.31,12.98-.93,22.95-2.18,24.45-2.81,45.29-10.29,60.98-5.92,9.06-9.97,9.66-23.38,9.66h-11.53v-160.82l-32.1,1.16v187.73h47.06c27.74,0,43.95-10.26,51.12-24.76,6.86-13.59,10.6-41.97,12.16-73.06.62-9.66.62-16.3.62-24.76,0-7.55-.62-16.61-.62-22.64-.37-13.93-2.09-31.42-4.81-46.34l-34.55,1.25c3.25,13.25,5.42,29.75,6.63,48.1Z"/><path class="d" d="M7406.83,1533.77h-48.31v53.8l32.1-1.16v-24.55h11.53c12.16,0,20.57,1.81,24.31,12.68,1.1,3.2,2.11,6.71,3.03,10.47l34.55-1.25c-1.82-9.98-4.09-18.8-6.72-24.61-6.23-14.79-22.75-25.36-50.49-25.36Z"/><polygon class="b" points="7594.15 1775.29 7627.5 1775.29 7627.5 1577.82 7594.15 1579.02 7594.15 1775.29"/><polygon class="d" points="7661.78 1561.84 7661.78 1533.77 7556.43 1533.77 7556.43 1561.84 7594.15 1561.84 7594.15 1579.02 7627.5 1577.82 7627.5 1561.84 7661.78 1561.84"/><polygon class="b" points="7678.93 1775.29 7777.73 1775.29 7777.73 1747.22 7711.03 1747.22 7711.03 1659.66 7747.81 1659.66 7747.81 1631.58 7711.03 1631.58 7711.03 1574.79 7678.93 1575.95 7678.93 1775.29"/><polygon class="d" points="7774.61 1561.84 7774.61 1533.77 7678.93 1533.77 7678.93 1575.95 7711.03 1574.79 7711.03 1561.84 7774.61 1561.84"/><path class="b" d="M7786.15,1631.89c-.31,6.94-.62,17.21-.62,21.44,0,4.83.31,16.3.94,25.36,2.18,32.61,5.3,48.91,11.53,64.61,8.42,21.44,26.81,34.42,50.81,34.42,31.79,0,51.43-15.7,57.97-59.17h-33.97c-4.05,22.04-10.6,28.68-24,28.68-9.66,0-17.45-8.76-20.88-20.23-6.23-20.83-8.1-38.64-9.35-61.59-.31-4.83-.31-11.47-.31-13.89,0-2.72.31-4.83.62-12.68.94-20.23,3.12-48.61,9.04-63.1.76-1.97,1.65-3.72,2.66-5.27l-36.14,1.31c-4.11,12.88-6.42,30.8-8.28,60.12Z"/><path class="d" d="M7869.99,1585.09h34.6c-.32-6.01-1.5-11.79-3.43-17.19l-37.77,1.37c3.33,4.18,5.58,9.74,6.6,15.82Z"/><path class="d" d="M7848.17,1531.95c-5.87,0-11.21.62-16.07,1.81h31.31c-4.75-1.17-9.83-1.81-15.24-1.81Z"/><path class="d" d="M7863.41,1533.76h-31.31c-17.35,4.24-28.54,15.67-35.36,31.7-.83,1.97-1.6,4.06-2.32,6.3l36.14-1.31c3.91-6.04,9.67-8.92,17.6-8.92,6.29,0,11.44,2.98,15.22,7.73l37.77-1.37c-5.95-16.62-19.22-29.55-37.75-34.14Z"/><polygon class="b" points="8001.52 1631.58 7957.57 1631.58 7957.57 1565.86 7925.47 1567.02 7925.47 1775.29 7957.57 1775.29 7957.57 1659.66 8001.52 1659.66 8001.52 1775.29 8033.63 1775.29 8033.63 1563.1 8001.52 1564.27 8001.52 1631.58"/><polygon class="d" points="8001.52 1533.77 8001.52 1564.27 8033.63 1563.1 8033.63 1533.77 8001.52 1533.77"/><polygon class="d" points="7957.57 1533.77 7925.47 1533.77 7925.47 1567.02 7957.57 1565.86 7957.57 1533.77"/><polygon class="b" points="8136.17 1670.53 8099.47 1560.72 8058.56 1562.2 8058.56 1775.29 8090.66 1775.29 8090.66 1632.19 8136.17 1775.29 8168.27 1775.29 8168.27 1558.22 8136.17 1559.39 8136.17 1670.53"/><polygon class="d" points="8090.66 1534.37 8058.56 1534.37 8058.56 1562.2 8099.47 1560.72 8090.66 1534.37"/><polygon class="d" points="8136.17 1534.37 8136.17 1559.39 8168.27 1558.22 8168.27 1534.37 8136.17 1534.37"/><path class="b" d="M8202.55,1566.67c-6.23,15.7-9.35,31.7-11.53,64.31-.62,9.06-.94,20.53-.94,25.36,0,4.23.31,14.49.62,21.44,2.18,34.42,4.99,51.32,10.6,64.61,8.73,20.53,23.38,35.02,50.18,35.02s41.45-14.49,50.18-35.02c5.61-13.59,8.42-30.19,10.6-64.61.31-7.25.62-17.21.62-21.74s-.31-16-.93-25.06c-1.87-32.61-5.3-48.61-11.53-64.31-1.87-4.75-4.13-9.1-6.78-12.99l-86.29,3.13c-1.81,3.06-3.42,6.35-4.8,9.87ZM8223.13,1644.26c1.25-22.94,2.18-39.85,8.42-60.68,3.43-11.47,10.29-21.13,19.95-21.13s16.52,9.66,19.95,21.13c6.23,20.83,7.17,37.74,8.42,60.68.31,4.83.31,11.47.31,13.89,0,2.72-.31,4.83-.62,12.68-.93,20.23-4.05,45.89-9.97,60.38-3.74,9.66-8.1,16.3-18.08,16.3s-14.34-6.64-18.08-16.3c-5.92-14.49-9.04-40.15-9.97-60.38-.31-7.85-.62-9.96-.62-12.68,0-2.42,0-9.06.31-13.89Z"/><path class="d" d="M8251.49,1531.95c-5.18,0-10.01.62-14.49,1.81h28.98c-4.48-1.19-9.31-1.81-14.49-1.81Z"/><path class="d" d="M8265.98,1533.76h-28.98c-12.86,3.41-22.79,11.5-29.65,23.04l86.29-3.13c-6.74-9.88-15.99-16.83-27.66-19.92Z"/><polygon class="b" points="8334.71 1775.29 8435.38 1775.29 8435.38 1747.52 8366.81 1747.52 8366.81 1551.03 8334.71 1552.19 8334.71 1775.29"/><polygon class="d" points="8334.71 1533.77 8334.71 1552.19 8366.81 1551.03 8366.81 1533.77 8334.71 1533.77"/><path class="d" d="M8504.58,1531.95c-5.18,0-10.01.62-14.49,1.81h28.98c-4.48-1.19-9.31-1.81-14.49-1.81Z"/><path class="b" d="M8455.65,1566.67c-6.23,15.7-9.35,31.7-11.53,64.31-.62,9.06-.93,20.53-.93,25.36,0,4.23.31,14.49.62,21.44,2.18,34.42,4.99,51.32,10.6,64.61,8.73,20.53,23.38,35.02,50.18,35.02s41.45-14.49,50.18-35.02c5.61-13.59,8.42-30.19,10.6-64.61.31-7.25.62-17.21.62-21.74s-.31-16-.94-25.06c-1.87-32.61-5.3-48.61-11.53-64.31-3.45-8.78-8.26-16.19-14.39-21.89l-71.69,2.6c-4.91,5.29-8.85,11.79-11.79,19.29ZM8476.22,1644.26c1.25-22.94,2.18-39.85,8.42-60.68,3.43-11.47,10.29-21.13,19.95-21.13s16.52,9.66,19.95,21.13c6.23,20.83,7.17,37.74,8.42,60.68.31,4.83.31,11.47.31,13.89,0,2.72-.31,4.83-.62,12.68-.94,20.23-4.05,45.89-9.97,60.38-3.74,9.66-8.1,16.3-18.08,16.3s-14.34-6.64-18.08-16.3c-5.92-14.49-9.04-40.15-9.97-60.38-.31-7.85-.62-9.96-.62-12.68,0-2.42,0-9.06.31-13.89Z"/><path class="d" d="M8490.09,1533.76c-5,2.39-16.57,7.07-22.65,13.62l71.69-2.6c-5.6-5.2-12.29-8.97-20.06-11.02h-28.98Z"/><path class="d" d="M8647.33,1531.95c-5.87,0-11.21.62-16.07,1.81h31.6c-4.78-1.18-9.96-1.81-15.53-1.81Z"/><path class="b" d="M8595.9,1565.47c-5.61,13.28-8.42,32-10.6,66.42-.31,6.94-.62,17.21-.62,21.44,0,4.83.31,16.3.94,25.36,2.18,32.61,5.3,48.91,11.53,64.61,8.42,21.44,26.81,33.81,50.81,33.81s41.14-9.96,48.93-26.87c2.49-5.43,5.3-18.11,5.3-27.17v-60.98h-52.36v28.08h20.88l-.31,26.57c0,9.66-1.87,16.3-3.43,19.32-3.74,7.85-10.6,11.17-19.01,11.17-9.66,0-17.45-8.76-20.88-20.23-6.23-20.83-8.1-38.64-9.35-61.59-.31-4.83-.31-11.47-.31-13.89,0-2.72.31-4.83.62-12.68.93-20.23,3.12-48.61,9.04-63.1,3.74-9.66,10.29-14.19,20.26-14.19,11.84,0,19.01,11.77,20.57,26.57h34.6c-1.41-22.06-10.13-39.06-25.13-48.33l-64.03,2.32c-7.65,5.75-13.33,13.73-17.43,23.37Z"/><path class="d" d="M8631.26,1533.76c-6.92,1.69-12.85,4.52-17.93,8.33l64.03-2.32c-4.32-2.67-9.17-4.7-14.51-6.01h-31.6Z"/><polygon class="b" points="8808.32 1535.03 8775.43 1624.64 8744 1537.36 8710.24 1538.59 8759.23 1668.72 8759.23 1775.29 8792.26 1775.29 8792.26 1668.12 8843.38 1533.77 8843.31 1533.77 8808.32 1535.03"/><polygon class="d" points="8808.32 1535.03 8843.31 1533.77 8808.78 1533.77 8808.32 1535.03"/><polygon class="d" points="8742.71 1533.77 8708.42 1533.77 8710.24 1538.59 8744 1537.36 8742.71 1533.77"/><path class="b" d="M2587.25,131.36c-80.67,0-146.24,14.52-199.1,40.76l508.14,98.13c-58.63-87.43-164.02-138.88-309.04-138.88Z"/><path class="b" d="M2177.1,773.43s0,.07,0,.1v-.19s0,.06,0,.09Z"/><path class="b" d="M2591.33,1428.27c39.7,0,76.36-3.28,109.81-9.59h-209.16c31.08,6.32,64.3,9.59,99.36,9.59Z"/><rect class="b" x="3099.39" y="1418.68" width="646.85" height="0"/><polygon class="b" points="3309.56 289.48 3725.83 289.48 3725.83 140.94 3099.39 140.94 3099.39 309.46 3309.56 350.05 3309.56 289.48"/><polygon class="b" points="3807.45 1418.69 4023.75 1418.69 4023.75 1418.68 3807.45 1418.68 3807.45 1418.69"/><polygon class="b" points="4458.38 1418.69 4672.64 1418.69 4672.63 1418.68 4458.38 1418.68 4458.38 1418.69"/><polygon class="b" points="4333.91 140.94 4154.34 140.94 4058.32 494.64 4447.6 569.81 4333.91 140.94"/><path class="b" d="M4984.8,289.48h112.23c118.35,0,175.49,65.48,175.49,193.26,0,119.79-59.18,191.66-175.49,191.66h-107.84l386.18,74.57c58.37-46.57,123.64-131.75,123.64-258.25,0-223.6-134.67-349.78-381.58-349.78h-342.81v492.02l210.17,40.59v-384.07Z"/><polygon class="b" points="5292.92 1418.69 5505.14 1418.69 5505.13 1418.68 5292.92 1418.68 5292.92 1418.69"/><rect class="b" x="4774.63" y="1418.68" width="212.21" height="0"/><polygon class="b" points="5586.74 1418.69 5803.04 1418.69 5803.04 1418.68 5586.75 1418.68 5586.74 1418.69"/><polygon class="b" points="6023.42 597.74 6093.49 887.65 6322.89 931.95 6113.2 140.94 5933.63 140.94 5748.98 821.12 5964.84 862.81 6023.42 597.74"/><polygon class="b" points="6237.67 1418.69 6451.93 1418.69 6451.93 1418.68 6237.67 1418.68 6237.67 1418.69"/><path class="b" d="M6764.1,822.94h126.51l70.82,232.32,225.76,43.6-94.57-311.05c8.16-1.6,26.53-14.38,26.53-14.38,63.26-36.74,159.16-129.37,159.16-282.7,0-223.6-134.67-349.78-381.58-349.78h-342.81v835.62l210.84,40.72-.67-194.34ZM6764.1,289.48h112.23c118.35,0,175.49,65.48,175.49,193.26,0,119.79-59.18,191.66-175.49,191.66h-112.23v-384.92Z"/><rect class="b" x="6553.92" y="1418.68" width="212.21" height="0"/><polygon class="b" points="7072.22 1418.69 7284.43 1418.69 7284.43 1418.68 7072.21 1418.68 7072.22 1418.69"/><rect class="b" x="7602.75" y="1418.68" width="218.34" height="0"/><polygon class="b" points="7821.09 289.48 8045.54 289.48 8045.54 140.94 7355.85 140.94 7355.85 289.48 7602.75 289.48 7602.75 1179.1 7821.09 1221.26 7821.09 289.48"/><path class="b" d="M8843.38,1126.4c0-151.73-71.42-252.36-179.57-348.19l-187.73-164.51c-99.99-84.65-128.55-138.96-128.55-206.04s57.13-116.59,140.8-116.59c104.06,0,140.79,62.29,144.88,121.39h206.09c-10.2-145.34-114.27-281.1-344.85-281.1-253.02,0-355.05,127.77-355.05,268.33,0,110.21,42.85,204.44,161.2,309.85l169.36,151.73c120.39,108.61,151,169.3,151,265.13,0,89.44-53.05,138.95-138.75,138.95-79.58,0-136.72-62.29-136.72-146.94h-218.34c2.27,64.63,22.28,123.97,57.48,173.05l488.48,94.33c105.27-52.51,170.26-148.63,170.26-259.4Z"/><path class="b" d="M8482.21,1428.27c33.42,0,65.26-3.33,95.2-9.59h-189.71c29.43,6.27,61,9.59,94.51,9.59Z"/><polygon class="b" points="4984.8 674.4 4989.2 674.4 4984.8 673.55 4984.8 674.4"/><path class="d" d="M2911.7,1286.12c16.32-28.75,34.69-95.83,34.69-143.75v-322.63h-342.81v148.54h136.72l-2.04,140.55c0,51.11-12.24,86.25-22.45,102.22-24.49,41.53-69.38,59.1-124.47,59.1-63.25,0-114.27-46.32-136.72-107.01-40.81-110.21-53.05-204.44-61.21-325.83-2.04-25.55-2.04-60.69-2.04-73.47,0-14.37,2.04-25.55,4.08-67.08,6.12-107.01,20.4-257.15,59.17-333.81,24.49-51.11,67.34-75.07,132.63-75.07,77.54,0,124.47,62.29,134.68,140.55h226.5c-4.8-60.6-22.5-113.99-52.14-158.19l-508.14-98.13c-62.13,30.83-106.72,77.85-137.59,136.53-36.73,70.28-55.1,169.3-69.38,351.38-2.04,36.69-4.08,90.9-4.08,113.31v.19c0,25.61,2.05,86.21,6.12,134.06,14.28,172.5,34.69,258.74,75.5,341.8,42.8,88.1,125.02,147.27,233.25,169.29h209.16c100.64-18.99,172.27-65.43,210.56-132.56Z"/><polygon class="d" points="3309.56 1270.15 3309.56 806.97 3550.35 806.97 3550.35 658.43 3309.56 658.43 3309.56 350.05 3099.39 309.46 3099.39 1418.68 3746.24 1418.68 3746.24 1270.15 3309.56 1270.15"/><path class="d" d="M4058.32,494.64l-250.86,924.04h216.3l104.06-349.77h232.62l97.94,349.77h214.26l-225.03-848.86-389.28-75.17ZM4178.83,893.21l65.3-295.48,71.42,295.48h-136.72Z"/><path class="d" d="M5339.85,773.43c11.07-6.43,23.14-14.57,35.52-24.45l-386.18-74.57h-4.39v-.85l-210.17-40.59v785.71h212.21l-2.04-595.74h126.51l181.6,595.74h212.21l-191.81-630.88c8.16-1.6,26.53-14.38,26.53-14.38Z"/><polygon class="d" points="6093.49 887.65 6094.84 893.21 5958.12 893.21 5964.84 862.81 5748.98 821.12 5586.75 1418.68 5803.04 1418.68 5907.11 1068.9 6139.73 1068.9 6237.67 1418.68 6451.93 1418.68 6322.89 931.95 6093.49 887.65"/><polygon class="d" points="6961.43 1055.26 7072.21 1418.68 7284.43 1418.68 7187.19 1098.85 6961.43 1055.26"/><polygon class="d" points="6553.92 976.56 6553.92 1418.68 6766.14 1418.68 6764.76 1017.28 6553.92 976.56"/><polygon class="d" points="7602.75 1179.1 7602.75 1418.68 7821.09 1418.68 7821.09 1221.26 7602.75 1179.1"/><path class="d" d="M8184.64,1291.47c44.79,62.44,114.19,108.27,203.06,127.21h189.71c34.62-7.24,66.69-18.41,95.71-32.88l-488.48-94.33Z"/></svg>
